<svg xmlns="http://www.w3.org/2000/svg" width="100%" height="100%" viewBox="0 0 24 24" fill="none">
  <path d="M14.7129 5.42285C15.3086 4.7002 15.7285 3.71387 15.7285 2.71777C15.7285 2.58105 15.7188 2.44434 15.6992 2.33691C14.7227 2.37598 13.5508 2.98145 12.8574 3.80176C12.3008 4.42676 11.793 5.42285 11.793 6.41895C11.793 6.5752 11.8223 6.72168 11.832 6.77051C11.8906 6.78027 11.9883 6.7998 12.0957 6.7998C12.9648 6.7998 14.0586 6.21387 14.7129 5.42285ZM15.3965 7.00488C13.9414 7.00488 12.75 7.89355 11.9883 7.89355C11.1777 7.89355 10.123 7.06348 8.85352 7.06348C6.44141 7.06348 4 9.05566 4 12.8057C4 15.1494 4.89844 17.6201 6.02148 19.2119C6.97852 20.5596 7.81836 21.6631 9.0293 21.6631C10.2207 21.6631 10.748 20.8721 12.2324 20.8721C13.7363 20.8721 14.0781 21.6436 15.3965 21.6436C16.7051 21.6436 17.5742 20.4424 18.4043 19.2607C19.3223 17.9033 19.7129 16.585 19.7227 16.5166C19.6445 16.4971 17.1445 15.4717 17.1445 12.6104C17.1445 10.1299 19.1074 9.0166 19.2246 8.92871C17.9258 7.06348 15.9434 7.00488 15.3965 7.00488Z" fill="currentColor"></path>
</svg>