<svg xmlns="http://www.w3.org/2000/svg" width="100%" height="100%" viewBox="0 0 24 24" fill="none">
  <path fill-rule="evenodd" clip-rule="evenodd" d="M6 3.29877C6.70254 2.90598 7.5327 2.89682 8.23976 3.29305L17 8.19549L14.2339 11L6 3.29877ZM5 5.11054C5 4.70929 5.12092 4.33078 5.33193 4L14 11.667L5.3094 20C5.11025 19.676 5 19.3055 5 18.9167V5.11054ZM20.8208 10.3833L18.08 9L15 11.816L18.7746 15L20.822 13.9666C21.5588 13.5931 22 12.9234 22 12.1744C21.9988 11.4253 21.5588 10.7557 20.8208 10.3833ZM6 20.672L14.5204 12L18 15.2666L8.33671 20.6945C7.97392 20.8985 7.57751 21 7.18343 21C6.77543 21 6.36975 20.8867 6 20.672Z" fill="currentColor"></path>
</svg>