<svg xmlns="http://www.w3.org/2000/svg" width="100%" height="100%" viewBox="0 0 16 16" fill="none">
  <path d="M12.4273 4.34267C12.4273 4.50288 12.3798 4.65951 12.2908 4.79274C12.2018 4.92597 12.0753 5.02982 11.9273 5.09114C11.7793 5.15247 11.6164 5.16853 11.4593 5.13728C11.3021 5.10603 11.1578 5.02888 11.0445 4.91559C10.9312 4.8023 10.8541 4.65796 10.8228 4.50082C10.7916 4.34368 10.8076 4.1808 10.869 4.03278C10.9303 3.88477 11.0341 3.75826 11.1674 3.66927C11.3006 3.58028 11.4572 3.5328 11.6174 3.53283C11.8322 3.53288 12.0382 3.61821 12.19 3.77008C12.3419 3.92194 12.4272 4.1279 12.4273 4.34267ZM15 8L14.9998 8.0102L14.9538 10.947C14.9419 12.006 14.5159 13.0181 13.7671 13.767C13.0183 14.5158 12.0061 14.9417 10.9472 14.9537L8 15L7.9898 14.9998L5.05297 14.9539C3.99402 14.942 2.98182 14.516 2.23297 13.7672C1.48412 13.0184 1.0581 12.0062 1.0461 10.9473L1 8L1.0002 7.9898L1.04607 5.05287C1.05811 3.99393 1.48413 2.98177 2.23297 2.23297C2.98182 1.48416 3.994 1.05819 5.05293 1.0462L8 1L8.0102 1.0002L10.947 1.04607C12.0059 1.05805 13.0181 1.48403 13.7669 2.23284C14.5157 2.98166 14.9417 3.99382 14.9537 5.05273L15 8ZM13.6963 8L13.6505 5.07333C13.6423 4.35346 13.3528 3.66536 12.8437 3.1563C12.3346 2.64723 11.6465 2.35764 10.9267 2.3495L8 2.3038L5.07333 2.3495C4.35346 2.35766 3.66537 2.64725 3.1563 3.15631C2.64723 3.66537 2.35763 4.35346 2.34947 5.07333L2.30377 8L2.34947 10.9267C2.35761 11.6466 2.6472 12.3347 3.15627 12.8437C3.66534 13.3528 4.35345 13.6424 5.07333 13.6505L8 13.6962L10.9267 13.6505C11.6466 13.6424 12.3347 13.3528 12.8437 12.8437C13.3528 12.3347 13.6424 11.6466 13.6505 10.9267L13.6963 8ZM11.5947 8C11.5947 8.71097 11.3838 9.40597 10.9888 9.99711C10.5939 10.5883 10.0324 11.049 9.37559 11.3211C8.71874 11.5931 7.99597 11.6643 7.29866 11.5256C6.60136 11.3869 5.96084 11.0446 5.45812 10.5418C4.95539 10.0391 4.61303 9.39858 4.47433 8.70127C4.33564 8.00397 4.40683 7.28119 4.67891 6.62435C4.95099 5.9675 5.41173 5.40609 6.00288 5.0111C6.59403 4.61611 7.28903 4.40529 8 4.4053C8.95304 4.40638 9.86674 4.78545 10.5406 5.45935C11.2145 6.13326 11.5936 7.04696 11.5947 8ZM10.2911 8C10.2911 7.54686 10.1567 7.10389 9.90497 6.72711C9.65322 6.35034 9.29539 6.05668 8.87674 5.88327C8.45809 5.70986 7.99741 5.66449 7.55298 5.75289C7.10854 5.8413 6.7003 6.05951 6.37988 6.37994C6.05946 6.70036 5.84125 7.1086 5.75285 7.55304C5.66445 7.99748 5.70983 8.45815 5.88324 8.8768C6.05666 9.29545 6.35033 9.65328 6.72711 9.90502C7.10388 10.1568 7.54686 10.2911 8 10.2911C8.60742 10.2904 9.18977 10.0488 9.61927 9.61929C10.0488 9.18977 10.2904 8.60742 10.2911 8H10.2911Z" fill="currentColor"></path>
</svg>