<svg width="100%" height="100%" viewBox="0 0 31 31" fill="none" xmlns="http://www.w3.org/2000/svg">
  <path d="M26.8283 5.41452L29.6743 2.56848L27.6224 0.516526L24.7763 3.36257L23.1356 1.72184C22.1022 0.63882 20.6754 0.0182735 19.1785 0.000383098C17.6816 -0.017172 16.2407 0.569246 15.1816 1.62763C14.1225 2.68602 13.5351 4.12659 13.552 5.6235C13.5689 7.12042 14.1884 8.5475 15.2708 9.5816L16.9163 11.2223L11.2246 16.914L9.58391 15.2733C8.5505 14.1902 7.12376 13.5697 5.62685 13.5522C4.12993 13.5343 2.68902 14.121 1.62994 15.1794C0.571208 16.2374 -0.0165835 17.678 0.000356254 19.1753C0.0172363 20.6722 0.636746 22.0993 1.71913 23.1334L3.36496 24.7741L0.518919 27.6201L2.57087 29.6721L5.41692 26.8261L7.05765 28.4668C8.09105 29.5498 9.51779 30.1704 11.0147 30.1882C12.5116 30.2058 13.9525 29.6194 15.0116 28.561C16.0707 27.5026 16.6581 26.062 16.6412 24.5651C16.6243 23.0682 16.0048 21.6411 14.9224 20.607L13.2769 18.9663L18.9686 13.2746L20.6093 14.9154C21.6427 15.9984 23.0695 16.6189 24.5664 16.6365C26.0633 16.6544 27.5042 16.0676 28.5633 15.0092C29.622 13.9512 30.2098 12.5106 30.1929 11.0134C30.176 9.51644 29.5565 8.08935 28.4741 7.05525L26.8283 5.41452ZM10.9871 27.1941C10.2821 27.1958 9.60595 26.9153 9.10899 26.415L3.78491 21.0909H3.78525C3.14987 20.4133 2.91458 19.4532 3.16473 18.5585C3.41456 17.6638 4.1137 16.9647 5.00839 16.7145C5.90308 16.4646 6.8632 16.6999 7.54114 17.3353L12.8652 22.6594L12.8649 22.6591C13.3628 23.1574 13.6424 23.8329 13.6421 24.5371C13.6421 25.2417 13.3625 25.9169 12.8645 26.4152C12.3666 26.9135 11.6914 27.1934 10.9871 27.194L10.9871 27.1941ZM24.5388 13.6424C23.8336 13.6441 23.1574 13.3635 22.6608 12.8632L17.3367 7.53911L17.337 7.53944C16.7016 6.86153 16.4664 5.90139 16.7162 5.0067C16.9663 4.11201 17.6655 3.4129 18.5602 3.16304C19.4549 2.91287 20.415 3.14818 21.0926 3.78356L26.4166 9.10764V9.1073C26.9143 9.6056 27.1938 10.2812 27.1938 10.9857C27.1938 11.6899 26.9143 12.3655 26.4163 12.8635C25.9183 13.3618 25.2432 13.642 24.5389 13.6424L24.5388 13.6424Z" fill="black"></path>
</svg>