<svg xmlns="http://www.w3.org/2000/svg" width="100%" height="100%" viewBox="0 0 26 26" fill="none">
  <path d="M13.6289 1.56961L13.8412 1.18609L13.6289 1.56962C13.7823 1.65451 13.9673 1.86712 14.2197 2.39281C14.466 2.90563 14.7373 3.62681 15.1125 4.62587L16.0129 7.0235C16.0217 7.0469 16.0304 7.06999 16.0389 7.09276C16.2323 7.60844 16.366 7.96474 16.5979 8.2467C16.8022 8.49523 17.0588 8.69571 17.3494 8.8339C17.6791 8.99069 18.0572 9.03416 18.6043 9.09709C18.6285 9.09986 18.653 9.10268 18.6778 9.10555L21.2221 9.39919C22.2822 9.52154 23.0476 9.6103 23.6048 9.7252C24.1759 9.84297 24.4269 9.97102 24.5464 10.0993C24.833 10.4069 24.9552 10.8331 24.8752 11.2458C24.8418 11.4179 24.6968 11.6595 24.2748 12.0621C23.8632 12.4548 23.2612 12.9356 22.427 13.6012L20.4249 15.1984C20.4054 15.214 20.3861 15.2294 20.3671 15.2446C19.9364 15.5879 19.6389 15.8251 19.4423 16.1327C19.2691 16.4039 19.1578 16.7099 19.1161 17.029C19.0689 17.391 19.1444 17.764 19.2536 18.3038C19.2584 18.3276 19.2633 18.3518 19.2683 18.3763L19.7752 20.8868C19.9865 21.9328 20.1386 22.6882 20.2015 23.2536C20.2659 23.8332 20.2217 24.1115 20.1367 24.2648C19.9326 24.6324 19.5651 24.8803 19.1479 24.9317C18.9739 24.9532 18.6993 24.8899 18.186 24.613C17.6854 24.3429 17.042 23.9189 16.1512 23.3312L14.0135 21.9207C13.9926 21.9069 13.972 21.8934 13.9517 21.88C13.4921 21.5765 13.1746 21.3668 12.8213 21.2749C12.5098 21.194 12.1844 21.1826 11.8681 21.2417C11.5092 21.3086 11.1778 21.4956 10.6982 21.7663C10.677 21.7783 10.6555 21.7904 10.6337 21.8027L8.40279 23.0606C7.4732 23.5848 6.80182 23.9628 6.28353 24.1974C5.75223 24.4378 5.47387 24.4818 5.30181 24.4482C4.88915 24.3678 4.53984 24.0948 4.36193 23.7139C4.28775 23.5551 4.26308 23.2743 4.36783 22.7007C4.47002 22.141 4.67444 21.3981 4.95814 20.3693L5.63897 17.9004C5.64561 17.8763 5.65218 17.8525 5.65865 17.829C5.80528 17.2982 5.90659 16.9314 5.88472 16.5669C5.86545 16.2457 5.7757 15.9327 5.62183 15.6501C5.44726 15.3295 5.16697 15.0721 4.76129 14.6996C4.74338 14.6831 4.72522 14.6665 4.70682 14.6496L2.82108 12.9165C2.03532 12.1944 1.46828 11.6727 1.08506 11.2523C0.692217 10.8213 0.564379 10.5701 0.543116 10.3961C0.492122 9.97879 0.643735 9.56224 0.95105 9.27532C1.07919 9.15569 1.33855 9.04548 1.91652 8.96783C2.48035 8.89207 3.25006 8.85692 4.31616 8.80882L6.87469 8.69337C6.89966 8.69225 6.92429 8.69115 6.94858 8.69006C7.49881 8.66545 7.87896 8.64846 8.21878 8.51505C8.51831 8.39747 8.78827 8.21538 9.00949 7.98171C9.26048 7.71661 9.41865 7.3705 9.64758 6.86957C9.65769 6.84744 9.66794 6.82502 9.67834 6.80229L10.7438 4.47331C11.1878 3.50286 11.5087 2.80236 11.7902 2.30797C12.0787 1.80117 12.278 1.60198 12.4369 1.52799C12.8181 1.35053 13.2611 1.366 13.6289 1.56961Z" fill="white" stroke="white" stroke-width="0.876733"></path>
</svg>