<svg xmlns="http://www.w3.org/2000/svg" width="100%" height="100%" viewBox="0 0 48 48" fill="none">
  <path fill-rule="evenodd" clip-rule="evenodd" d="M34 42H14C11.79 42 10 40.21 10 38V22C10 19.79 11.79 18 14 18H34C36.21 18 38 19.79 38 22V38C38 40.21 36.21 42 34 42Z" fill="white" stroke="white" stroke-width="2.74781" stroke-linecap="round" stroke-linejoin="round"></path>
  <path d="M16 17.8662V13.8662C16 9.44821 19.582 5.86621 24 5.86621C27.483 5.86621 30.4464 8.09248 31.5447 11.1995M24 5.86621C19.582 5.86621 16 9.44821 16 13.8662" stroke="white" stroke-width="2.63081" stroke-linecap="round" stroke-linejoin="round"></path>
  <path d="M23.996 29C23.444 29 22.996 29.448 23 30C23 30.552 23.448 31 24 31C24.552 31 25 30.552 25 30C25 29.448 24.552 29 23.996 29" stroke="black" stroke-width="2.8125" stroke-linecap="round" stroke-linejoin="round"></path>
</svg>