<svg xmlns="http://www.w3.org/2000/svg" width="100%" height="100%" viewBox="0 0 16 16" fill="none">
  <path fill-rule="evenodd" clip-rule="evenodd" d="M13.1946 3.6098C13.768 3.76385 14.2216 4.21742 14.3756 4.7908C14.658 5.83488 14.6666 8.00005 14.6666 8.00005C14.6666 8.00005 14.6666 10.1738 14.3842 11.2093C14.2301 11.7827 13.7766 12.2362 13.2032 12.3903C12.1677 12.6727 7.99992 12.6727 7.99992 12.6727C7.99992 12.6727 3.83218 12.6727 2.79667 12.3903C2.22328 12.2362 1.76971 11.7827 1.61567 11.2093C1.33325 10.1652 1.33325 8.00005 1.33325 8.00005C1.33325 8.00005 1.33325 5.83488 1.60711 4.79937C1.76115 4.22598 2.21472 3.77241 2.78811 3.61837C3.82362 3.33595 7.99136 3.32739 7.99136 3.32739C7.99136 3.32739 12.1591 3.32739 13.1946 3.6098ZM10.1223 8.00005L6.66487 10.0026V5.99748L10.1223 8.00005Z" fill="currentColor"></path>
</svg>