<svg xmlns="http://www.w3.org/2000/svg" width="100%" height="100%" viewBox="0 0 100 28" fill="none">
  <path d="M14.1139 9.71678V27.1182H10.5402V13.1037H3.57372V27.1182H0V7.73138C0 5.22043 0.642335 3.28759 1.91533 1.99124C3.21168 0.671535 5.02774 0 7.31679 0C10.1139 0 12.2686 0.969339 13.7168 2.87883L13.8861 3.10657L11.2642 5.23211L11.0832 4.98685C10.2832 3.9124 9.21461 3.38685 7.80147 3.38685C4.95767 3.38685 3.57372 4.91679 3.57372 8.06423V9.71678H14.1139Z" fill="url(#paint0_radial_3546_14390)"></path>
  <path d="M27.3752 25.8041L27.2059 25.9384C25.9855 26.9252 24.4789 27.4216 22.7271 27.4216C20.8176 27.4216 19.3986 26.8318 18.4935 25.6639C17.6117 24.5194 17.1621 22.7617 17.1621 20.4435V5.05078H20.7358V9.72231H26.9023V13.1092H20.7358V20.1398C20.7358 22.7617 21.6176 24.0347 23.4336 24.0347C24.3387 24.0347 25.1679 23.7427 25.9095 23.1646L26.2132 22.9252L27.3752 25.8041Z" fill="url(#paint1_radial_3546_14390)"></path>
  <path d="M43.5854 11.9355C41.892 10.2128 39.6438 9.34277 36.911 9.34277C34.1781 9.34277 31.9183 10.2128 30.2015 11.9355C28.508 13.6231 27.6497 15.807 27.6497 18.4172C27.6497 20.9982 28.508 23.1939 30.2015 24.934L30.2073 24.9457C31.9475 26.6333 34.2015 27.4917 36.911 27.4917C39.6438 27.4917 41.892 26.6333 43.5854 24.9398C45.3022 23.2231 46.1723 21.0274 46.1723 18.4172C46.1723 15.807 45.3022 13.6231 43.5854 11.9355ZM40.8526 22.5515C39.8424 23.5851 38.5168 24.1106 36.911 24.1106C35.3051 24.1106 33.9679 23.5734 32.9343 22.5165C31.9241 21.4829 31.4102 20.1048 31.4102 18.4231C31.4102 16.7413 31.9358 15.369 32.9694 14.3296H32.9752C33.9854 13.2727 35.311 12.7355 36.911 12.7355C38.5168 12.7355 39.8365 13.2727 40.8467 14.3296C41.8862 15.4099 42.4117 16.788 42.4117 18.4231C42.4117 20.1048 41.8862 21.4946 40.8526 22.5515Z" fill="url(#paint2_radial_3546_14390)"></path>
  <path d="M71.4802 3.69014C71.4802 4.33832 71.2817 4.88722 70.8788 5.3135C70.47 5.72226 69.962 5.92663 69.3605 5.92663C68.7357 5.92663 68.2043 5.72809 67.778 5.32517C67.3401 4.89306 67.124 4.34416 67.124 3.69014C67.124 3.08285 67.3459 2.58064 67.7839 2.20108C68.2043 1.80984 68.7357 1.60547 69.3605 1.60547C69.962 1.60547 70.47 1.80984 70.8729 2.2186C71.2758 2.59232 71.4802 3.09452 71.4802 3.69014Z" fill="url(#paint3_radial_3546_14390)"></path>
  <path d="M71.0715 9.7168H67.4978V27.1183H71.0715V9.7168Z" fill="url(#paint4_radial_3546_14390)"></path>
  <path d="M87.6731 22.1194C87.6731 23.8829 87.0015 25.2435 85.6818 26.1661C84.4147 27.0479 82.7972 27.4917 80.876 27.4917C79.5213 27.4917 78.2132 27.2055 76.9811 26.645C75.6965 26.0377 74.8614 25.4187 74.4293 24.7413L74.3184 24.5661L76.3446 21.9968L76.5782 22.2596C77.0454 22.8026 77.7402 23.2756 78.6454 23.6844C80.6074 24.5194 82.2191 24.4435 83.1709 23.7486C83.6672 23.3807 83.9125 22.8961 83.9125 22.2654C83.9125 21.7691 83.6497 21.3603 83.1125 21.0158C82.5169 20.6362 81.7811 20.3209 80.911 20.0814C80.0293 19.807 79.13 19.4858 78.2308 19.1355C77.2906 18.7734 76.4848 18.1895 75.8307 17.407C75.1651 16.5836 74.8322 15.5676 74.8322 14.3822C74.8322 12.8756 75.3928 11.6435 76.5081 10.7209C77.6001 9.80408 79.06 9.34277 80.841 9.34277C83.3753 9.34277 85.3899 10.0377 86.8322 11.4041L87.0074 11.5676L85.279 14.3413L85.022 14.1136C83.8366 13.0741 82.4819 12.5428 80.9928 12.5428C80.2629 12.5428 79.6731 12.7238 79.2293 13.08C78.803 13.4187 78.5928 13.8333 78.5928 14.3413C78.5928 14.8961 78.8556 15.3398 79.3987 15.7077C79.9884 16.0873 80.7183 16.4143 81.5651 16.6829C82.4527 16.9282 83.3694 17.2318 84.2746 17.5822C85.2089 17.9209 86.0147 18.4815 86.6687 19.2347C87.3344 20.0172 87.6731 20.9866 87.6731 22.1194Z" fill="url(#paint5_radial_3546_14390)"></path>
  <path d="M100 25.8041L99.8365 25.9384C98.6161 26.9252 97.1095 27.4216 95.3519 27.4216C93.4482 27.4216 92.0234 26.8318 91.1241 25.6639C90.2423 24.5194 89.7927 22.7617 89.7927 20.4435V5.05078H93.3664V9.72231H99.5329V13.1092H93.3664V20.1398C93.3664 22.7617 94.2482 24.0347 96.0643 24.0347C96.9635 24.0347 97.7986 23.7427 98.5343 23.1646L98.8438 22.9252L100 25.8041Z" fill="url(#paint6_radial_3546_14390)"></path>
  <path d="M64.0877 17.1156V27.1244H60.514V17.6762C60.514 14.5638 59.2001 12.9696 56.4906 12.8236C53.7811 12.9696 52.4673 14.5638 52.4673 17.6762V27.1244H48.8936V17.1156C48.8936 14.0032 49.8045 11.8251 51.6089 10.6047C52.7592 9.82218 54.5812 9.2207 56.4906 9.2207C58.4001 9.2207 60.222 9.82218 61.3724 10.6047C63.1768 11.8251 64.0877 14.0032 64.0877 17.1156Z" fill="url(#paint7_radial_3546_14390)"></path>
  <defs>
    <radialGradient id="paint0_radial_3546_14390" cx="0" cy="0" r="1" gradientUnits="userSpaceOnUse" gradientTransform="translate(72.8334 27.4917) rotate(-160.644) scale(82.9454 55.0158)">
      <stop stop-color="#FFB8E0"></stop>
      <stop offset="0.38895" stop-color="#BE9EFF"></stop>
      <stop offset="0.673962" stop-color="#88C0FC"></stop>
      <stop offset="1" stop-color="#86FF99"></stop>
    </radialGradient>
    <radialGradient id="paint1_radial_3546_14390" cx="0" cy="0" r="1" gradientUnits="userSpaceOnUse" gradientTransform="translate(72.8334 27.4917) rotate(-160.644) scale(82.9454 55.0158)">
      <stop stop-color="#FFB8E0"></stop>
      <stop offset="0.38895" stop-color="#BE9EFF"></stop>
      <stop offset="0.673962" stop-color="#88C0FC"></stop>
      <stop offset="1" stop-color="#86FF99"></stop>
    </radialGradient>
    <radialGradient id="paint2_radial_3546_14390" cx="0" cy="0" r="1" gradientUnits="userSpaceOnUse" gradientTransform="translate(72.8334 27.4917) rotate(-160.644) scale(82.9454 55.0158)">
      <stop stop-color="#FFB8E0"></stop>
      <stop offset="0.38895" stop-color="#BE9EFF"></stop>
      <stop offset="0.673962" stop-color="#88C0FC"></stop>
      <stop offset="1" stop-color="#86FF99"></stop>
    </radialGradient>
    <radialGradient id="paint3_radial_3546_14390" cx="0" cy="0" r="1" gradientUnits="userSpaceOnUse" gradientTransform="translate(72.8334 27.4917) rotate(-160.644) scale(82.9454 55.0158)">
      <stop stop-color="#FFB8E0"></stop>
      <stop offset="0.38895" stop-color="#BE9EFF"></stop>
      <stop offset="0.673962" stop-color="#88C0FC"></stop>
      <stop offset="1" stop-color="#86FF99"></stop>
    </radialGradient>
    <radialGradient id="paint4_radial_3546_14390" cx="0" cy="0" r="1" gradientUnits="userSpaceOnUse" gradientTransform="translate(72.8334 27.4917) rotate(-160.644) scale(82.9454 55.0158)">
      <stop stop-color="#FFB8E0"></stop>
      <stop offset="0.38895" stop-color="#BE9EFF"></stop>
      <stop offset="0.673962" stop-color="#88C0FC"></stop>
      <stop offset="1" stop-color="#86FF99"></stop>
    </radialGradient>
    <radialGradient id="paint5_radial_3546_14390" cx="0" cy="0" r="1" gradientUnits="userSpaceOnUse" gradientTransform="translate(72.8334 27.4917) rotate(-160.644) scale(82.9454 55.0158)">
      <stop stop-color="#FFB8E0"></stop>
      <stop offset="0.38895" stop-color="#BE9EFF"></stop>
      <stop offset="0.673962" stop-color="#88C0FC"></stop>
      <stop offset="1" stop-color="#86FF99"></stop>
    </radialGradient>
    <radialGradient id="paint6_radial_3546_14390" cx="0" cy="0" r="1" gradientUnits="userSpaceOnUse" gradientTransform="translate(72.8334 27.4917) rotate(-160.644) scale(82.9454 55.0158)">
      <stop stop-color="#FFB8E0"></stop>
      <stop offset="0.38895" stop-color="#BE9EFF"></stop>
      <stop offset="0.673962" stop-color="#88C0FC"></stop>
      <stop offset="1" stop-color="#86FF99"></stop>
    </radialGradient>
    <radialGradient id="paint7_radial_3546_14390" cx="0" cy="0" r="1" gradientUnits="userSpaceOnUse" gradientTransform="translate(72.8334 27.4917) rotate(-160.644) scale(82.9454 55.0158)">
      <stop stop-color="#FFB8E0"></stop>
      <stop offset="0.38895" stop-color="#BE9EFF"></stop>
      <stop offset="0.673962" stop-color="#88C0FC"></stop>
      <stop offset="1" stop-color="#86FF99"></stop>
    </radialGradient>
  </defs>
</svg>