<svg width="258" height="258" viewBox="0 0 258 258" fill="none" xmlns="http://www.w3.org/2000/svg">
<path d="M129.256 21.3465C124.68 21.3465 121.534 18.9805 121.3 15.5485H123.588C123.848 17.8885 126.058 19.3705 129.256 19.3705C132.038 19.3705 133.494 18.2265 133.494 16.3285C133.494 14.4825 131.882 13.7805 130.14 13.2345L126.994 12.2465C125.538 11.7785 121.872 10.9985 121.872 7.43655C121.872 4.49855 124.29 2.57455 128.06 2.57455C132.22 2.57455 134.794 4.68055 135.08 8.55455H132.818C132.636 5.98055 130.842 4.55055 127.956 4.55055C125.668 4.55055 124.056 5.59055 124.056 7.33255C124.056 9.33455 126.136 9.75055 127.696 10.2445L130.634 11.1545C132.948 11.8825 135.73 12.7925 135.73 16.2245C135.73 19.4225 133.286 21.3465 129.256 21.3465Z" fill="#4E68E4"/>
<path d="M145.045 22.6305C139.524 21.756 136.877 17.3618 137.739 11.9177C138.585 6.57628 142.46 3.21516 147.981 4.08963C152.553 4.81362 155.262 7.98054 155.317 12.6222L153.083 12.2684C152.936 8.87559 150.93 6.58354 147.668 6.06699C143.637 5.42842 140.702 7.833 139.999 12.2756C139.271 16.8723 141.326 20.0146 145.358 20.6532C148.722 21.186 151.194 19.7084 152.424 16.4285L154.658 16.7824C153.122 21.33 149.744 23.3748 145.045 22.6305Z" fill="#4E68E4"/>
<path d="M156.863 24.7441L154.786 24.0692L160.41 6.75995L168.298 9.32295C171.562 10.3835 173.178 13.0681 172.262 15.887C171.595 17.9394 169.648 19.2204 167.329 19.2051C168.164 19.7497 168.614 20.552 168.654 21.5219L168.98 28.681L166.754 27.9579L166.481 21.226C166.45 20.3958 165.985 19.8073 165.169 19.5422L159.185 17.5978L156.863 24.7441ZM161.869 9.33886L159.788 15.7433L165.698 17.6635C167.849 18.3625 169.493 17.2565 170.096 15.4019C170.755 13.3743 169.658 11.8697 167.779 11.2591L161.869 9.33886Z" fill="#4E68E4"/>
<path d="M176.853 32.8683C172.22 30.5075 170.722 25.6008 173.331 20.4811C175.786 15.6625 180.511 13.6635 185.376 16.1423C190.055 18.5266 191.553 23.4333 188.991 28.4604C186.513 33.3253 181.764 35.3707 176.853 32.8683ZM177.762 31.0845C181.376 32.9258 184.933 31.4994 186.999 27.4453C189.041 23.4375 188.057 19.7557 184.467 17.9261C180.899 16.1083 177.365 17.4884 175.323 21.4962C173.258 25.5503 174.195 29.2667 177.762 31.0845Z" fill="#4E68E4"/>
<path d="M196.658 45.2024L187.003 38.1878L197.7 23.4637L199.467 24.7474L189.946 37.8519L197.834 43.5828L196.658 45.2024Z" fill="#4E68E4"/>
<path d="M208.859 56.8906L200.42 48.452L213.289 35.5826L214.834 37.127L203.38 48.5807L210.274 55.475L208.859 56.8906Z" fill="#4E68E4"/>
<path d="M224.685 80.5462L223.694 78.6003L238.126 71.2465L235.27 65.6403L237.054 64.7314L243.758 77.8898L241.974 78.7987L239.118 73.1925L224.685 80.5462Z" fill="#4E68E4"/>
<path d="M230.355 95.0867C228.748 90.1412 231.159 85.6127 236.624 83.837C241.767 82.1659 246.521 84.093 248.208 89.2858C249.831 94.2808 247.421 98.8093 242.055 100.553C236.862 102.24 232.059 100.329 230.355 95.0867ZM232.259 94.4681C233.513 98.3255 237.037 99.8323 241.364 98.4262C245.642 97.0363 247.55 93.7372 246.304 89.9045C245.067 86.0964 241.592 84.5736 237.315 85.9636C232.987 87.3696 231.022 90.66 232.259 94.4681Z" fill="#4E68E4"/>
<path d="M236 134.933V122.271H254.2V134.699H252.198V124.429H246.452V133.659H244.502V124.429H238.002V134.933H236Z" fill="#4E68E4"/>
<path d="M235.626 139.384L236.041 136.765L243.998 145.027L253.984 139.817L253.569 142.436L245.481 146.631L251.881 153.094L251.466 155.713L243.622 147.732L233.462 153.046L233.877 150.426L242.139 146.128L235.626 139.384Z" fill="#4E68E4"/>
<path d="M232.162 157.4L232.837 155.322L250.146 160.947L247.487 169.131C246.313 172.742 243.387 173.923 240.618 173.023C237.106 171.882 236.031 168.799 237.027 165.733L239.011 159.625L232.162 157.4ZM247.567 162.405L240.915 160.244L238.899 166.45C238.2 168.602 239.38 170.27 241.309 170.897C243.361 171.564 244.956 170.441 245.55 168.612L247.567 162.405Z" fill="#4E68E4"/>
<path d="M221.494 182.839L226.912 172.206L243.128 180.468L242.137 182.414L227.704 175.061L223.278 183.748L221.494 182.839Z" fill="#4E68E4"/>
<path d="M215.45 191.288C218.506 187.082 223.587 186.37 228.235 189.747C232.61 192.926 233.846 197.905 230.636 202.322C227.549 206.571 222.469 207.283 217.904 203.967C213.487 200.757 212.21 195.748 215.45 191.288ZM217.069 192.465C214.685 195.747 215.538 199.483 219.219 202.158C222.857 204.802 226.648 204.406 229.017 201.146C231.37 197.906 230.56 194.2 226.921 191.556C223.24 188.882 219.423 189.226 217.069 192.465Z" fill="#4E68E4"/>
<path d="M208.124 200.964L209.669 199.42L222.538 212.289L216.673 218.154C214.247 220.58 211.121 220.801 209.025 218.705C207.499 217.179 207.242 214.863 208.308 212.804C207.444 213.3 206.525 213.337 205.642 212.932L199.116 209.972L200.771 208.318L206.893 211.131C207.646 211.48 208.382 211.333 208.989 210.726L213.438 206.277L208.124 200.964ZM219.578 212.418L214.816 207.656L210.423 212.05C208.823 213.649 209.062 215.616 210.441 216.995C211.948 218.503 213.787 218.209 215.184 216.812L219.578 212.418Z" fill="#4E68E4"/>
<path d="M186.532 219.276L196.776 211.833L207.473 226.557L197.419 233.862L196.242 232.243L204.551 226.206L201.173 221.557L193.706 226.983L192.56 225.405L200.027 219.98L196.207 214.721L187.709 220.895L186.532 219.276Z" fill="#4E68E4"/>
<path d="M158.898 239.261L169.482 235.823L170.044 237.553L159.461 240.992L158.898 239.261Z" fill="#4E68E4"/>
<path d="M127.744 235.775C132.32 235.775 135.466 238.141 135.7 241.573H133.412C133.152 239.233 130.942 237.751 127.744 237.751C124.962 237.751 123.506 238.895 123.506 240.793C123.506 242.639 125.118 243.341 126.86 243.887L130.006 244.875C131.462 245.343 135.128 246.123 135.128 249.685C135.128 252.623 132.71 254.547 128.94 254.547C124.78 254.547 122.206 252.441 121.92 248.567H124.182C124.364 251.141 126.158 252.571 129.044 252.571C131.332 252.571 132.944 251.531 132.944 249.789C132.944 247.787 130.864 247.371 129.304 246.877L126.366 245.967C124.052 245.239 121.27 244.329 121.27 240.897C121.27 237.699 123.714 235.775 127.744 235.775Z" fill="#4E68E4"/>
<path d="M111.955 234.491C117.476 235.365 120.124 239.759 119.261 245.203C118.415 250.545 114.54 253.906 109.019 253.031C104.448 252.307 101.738 249.141 101.683 244.499L103.917 244.853C104.064 248.246 106.07 250.538 109.332 251.054C113.364 251.693 116.298 249.288 117.001 244.845C117.73 240.249 115.674 237.106 111.642 236.468C108.278 235.935 105.806 237.413 104.576 240.693L102.342 240.339C103.878 235.791 107.256 233.746 111.955 234.491Z" fill="#4E68E4"/>
<path d="M100.137 232.376L102.214 233.051L96.5897 250.36L88.7017 247.797C85.4376 246.737 83.8222 244.052 84.7381 241.233C85.4049 239.181 87.3521 237.9 89.6709 237.915C88.8363 237.37 88.3862 236.568 88.346 235.598L88.0203 228.439L90.2458 229.162L90.5188 235.894C90.5498 236.724 91.0147 237.313 91.8307 237.578L97.8148 239.522L100.137 232.376ZM95.1313 247.781L97.2122 241.377L91.3023 239.457C89.151 238.758 87.5068 239.864 86.9042 241.718C86.2454 243.746 87.3421 245.25 89.2214 245.861L95.1313 247.781Z" fill="#4E68E4"/>
<path d="M80.1466 224.252C84.7799 226.613 86.2775 231.519 83.6689 236.639C81.2137 241.458 76.4892 243.457 71.6243 240.978C66.9448 238.593 65.4471 233.687 68.0086 228.66C70.4873 223.795 75.2354 221.749 80.1466 224.252ZM79.2378 226.036C75.6238 224.194 72.0665 225.621 70.0008 229.675C67.9588 233.683 68.9425 237.364 72.5332 239.194C76.1008 241.012 79.6345 239.632 81.6766 235.624C83.7423 231.57 82.8053 227.853 79.2378 226.036Z" fill="#4E68E4"/>
<path d="M60.3425 211.919L69.9973 218.933L59.2996 233.657L57.5327 232.374L67.0537 219.269L59.1658 213.538L60.3425 211.919Z" fill="#4E68E4"/>
<path d="M48.1416 200.23L56.5802 208.668L43.7109 221.537L42.1666 219.993L53.6203 208.539L46.726 201.645L48.1416 200.23Z" fill="#4E68E4"/>
<path d="M32.3147 176.576L33.3062 178.522L18.8737 185.876L21.7302 191.482L19.9464 192.391L13.2419 179.232L15.0257 178.323L17.8822 183.93L32.3147 176.576Z" fill="#4E68E4"/>
<path d="M26.6447 162.033C28.2516 166.979 25.841 171.507 20.3762 173.283C15.2329 174.954 10.4787 173.027 8.79144 167.834C7.16848 162.839 9.57906 158.311 14.9449 156.567C20.1377 154.88 24.9414 156.791 26.6447 162.033ZM24.7407 162.652C23.4873 158.795 19.9632 157.288 15.6359 158.694C11.358 160.084 9.45011 163.383 10.6955 167.216C11.9328 171.024 15.4074 172.546 19.6853 171.157C24.0126 169.75 25.978 166.46 24.7407 162.652Z" fill="#4E68E4"/>
<path d="M21 122.189L21 134.851H2.8L2.8 122.423H4.802L4.802 132.693H10.548L10.548 123.463H12.498L12.498 132.693H18.998L18.998 122.189H21Z" fill="#4E68E4"/>
<path d="M21.3743 117.736L20.9594 120.356L13.002 112.093L3.01603 117.303L3.4309 114.684L11.5186 110.489L5.11886 104.027L5.53373 101.407L13.3777 109.389L23.5381 104.075L23.1233 106.694L14.8611 110.992L21.3743 117.736Z" fill="#4E68E4"/>
<path d="M24.8381 99.7216L24.1632 101.799L6.85394 96.1745L9.51336 87.9898C10.6864 84.3796 13.6127 83.198 16.3822 84.0979C19.8935 85.2388 20.9693 88.3221 19.9731 91.3883L17.9886 97.496L24.8381 99.7216ZM9.43285 94.7161L16.0845 96.8774L18.1012 90.6708C18.8002 88.5195 17.62 86.8511 15.6912 86.2244C13.6389 85.5576 12.0441 86.6797 11.4495 88.5095L9.43285 94.7161Z" fill="#4E68E4"/>
<path d="M35.5062 74.282L30.0882 84.9153L13.8719 76.6526L14.8634 74.7067L29.296 82.0604L33.7224 73.3731L35.5062 74.282Z" fill="#4E68E4"/>
<path d="M41.5504 65.8326C38.4939 70.0395 33.4133 70.7511 28.7647 67.3737C24.3895 64.1949 23.1542 59.2159 26.3635 54.7987C29.4506 50.5497 34.5312 49.8381 39.0956 53.1544C43.5129 56.3638 44.7903 61.3733 41.5504 65.8326ZM39.9307 64.6559C42.3148 61.3745 41.4624 57.6378 37.7814 54.9634C34.1424 52.3195 30.352 52.7151 27.9832 55.9754C25.6297 59.2147 26.44 62.9209 30.079 65.5647C33.76 68.2392 37.5772 67.8952 39.9307 64.6559Z" fill="#4E68E4"/>
<path d="M48.8756 56.1563L47.3313 57.7006L34.4619 44.8313L40.3267 38.9665C42.7535 36.5397 45.8789 36.3191 47.9747 38.415C49.5007 39.9409 49.7581 42.2574 48.6917 44.3165C49.5558 43.8201 50.4751 43.7833 51.3575 44.1878L57.8841 47.1478L56.2295 48.8024L50.1074 45.9895C49.3536 45.6402 48.6182 45.7873 48.0115 46.394L43.5624 50.8431L48.8756 56.1563ZM37.4219 44.7026L42.1835 49.4642L46.5775 45.0703C48.177 43.4708 47.938 41.5036 46.5591 40.1248C45.0516 38.6172 43.2131 38.9114 41.8158 40.3086L37.4219 44.7026Z" fill="#4E68E4"/>
<path d="M70.4681 37.8455L60.2243 45.288L49.5266 30.5639L59.5811 23.2589L60.7578 24.8786L52.4492 30.9151L55.8266 35.5637L63.2939 30.1385L64.44 31.7161L56.9728 37.1413L60.7934 42.3999L69.2913 36.2258L70.4681 37.8455Z" fill="#4E68E4"/>
<path d="M98.1019 17.8608L87.5185 21.2995L86.9561 19.5686L97.5395 16.1298L98.1019 17.8608Z" fill="#4E68E4"/>
</svg>
