<?xml version="1.0" encoding="UTF-8"?> 
<svg xmlns="http://www.w3.org/2000/svg" viewBox="0 0 24 24" fill="none">
  <path
    d="M9.82371 24C9.67781 24 9.58055 23.9027 9.58055 23.7568V14.6383C9.58055 14.4924 9.48328 14.3951 9.33739 14.3951H0.243161C0.0972644 14.3951 0 14.2979 0 14.152V9.82371C0 9.67781 0.0972644 9.58055 0.243161 9.58055H9.33739C9.48328 9.58055 9.58055 9.48328 9.58055 9.33739V0.243161C9.58055 0.0972644 9.67781 0 9.82371 0H14.1763C14.3222 0 14.4195 0.0972644 14.4195 0.243161V9.33739C14.4195 9.48328 14.5167 9.58055 14.6626 9.58055H23.7568C23.9027 9.58055 24 9.67781 24 9.82371V14.152C24 14.2979 23.9027 14.3951 23.7568 14.3951H14.6626C14.5167 14.3951 14.4195 14.4924 14.4195 14.6383V23.7568C14.4195 23.9027 14.3222 24 14.1763 24H9.82371Z"
    fill="#000"></path>
</svg>