<?xml version="1.0" encoding="UTF-8"?> 
<svg xmlns="http://www.w3.org/2000/svg" height="35" viewBox="0 0 35 35" width="35" class="as-svgicon" aria-hidden="true" role="img">
  <path d="m0 0h35v35h-35z" fill="none"></path>
  <path
    d="m29 9h-23a3 3 0 0 0 -3 3v10a3 3 0 0 0 3 3h.5508a1 1 0 0 1 .8511.4749l.0309.05a1 1 0 0 0 .8511.4751h18.4322a1 1 0 0 0 .8511-.4749l.0309-.05a1 1 0 0 1 .8511-.4751h.5508a3 3 0 0 0 3-3v-10a3 3 0 0 0 -3-3zm2 13a2 2 0 0 1 -2 2h-1.1089a1 1 0 0 0 -.8511.4749l-.0309.05a1 1 0 0 1 -.8511.4751h-17.316a1 1 0 0 1 -.8511-.4749l-.0309-.05a1 1 0 0 0 -.8511-.4751h-1.1089a2 2 0 0 1 -2-2v-10a2 2 0 0 1 2-2h23a2 2 0 0 1 2 2zm-2.875-2.25a1.375 1.375 0 1 1 -1.375-1.375 1.3751 1.3751 0 0 1 1.375 1.375z">
  </path>
</svg>