<?xml version="1.0" encoding="UTF-8"?> 
<svg xmlns="http://www.w3.org/2000/svg" height="35" viewBox="0 0 35 35" width="35" class="as-svgicon" aria-hidden="true" role="img">
<path d="m0 0h35v35h-35z" fill="none"></path>
<path d="m30.25 6h-25.5a1.75 1.75 0 0 0 -1.75 1.75v13.5a1.75 1.75 0 0 0 1.75 1.75h9.25v5a1 1 0 0 0 1 1h5a1 1 0 0 0 1-1v-5h9.25a1.75 1.75 0 0 0 1.75-1.75v-13.5a1.75 1.75 0 0 0 -1.75-1.75zm-11.65 17.1a1.1 1.1 0 0 1 -2.2 0c0-.0355.0171-.0654.02-.1h2.16c.003.0346.02.0645.02.1zm12.4-2.1a1 1 0 0 1 -1 1h-25a1 1 0 0 1 -1-1v-13a1 1 0 0 1 1-1h25a1 1 0 0 1 1 1z"></path>
</svg>