<svg width="33" height="32" viewBox="0 0 33 32" fill="none" xmlns="http://www.w3.org/2000/svg">
<path d="M11.4259 9.17562C11.4259 10.3772 10.3844 11.3512 9.09965 11.3512C7.81492 11.3512 6.77344 10.3772 6.77344 9.17562C6.77344 7.97406 7.81492 7 9.09965 7C10.3844 7 11.4259 7.97406 11.4259 9.17562Z" fill="currentColor"></path>
<path d="M7.09155 12.9504H11.068V25H7.09155V12.9504Z" fill="currentColor"></path>
<path d="M17.4701 12.9504H13.4936V25H17.4701C17.4701 25 17.4701 21.2066 17.4701 18.8348C17.4701 17.4112 17.9561 15.9814 19.8957 15.9814C22.0876 15.9814 22.0744 17.8444 22.0642 19.2877C22.0508 21.1743 22.0827 23.0995 22.0827 25H26.0592V18.6405C26.0255 14.5798 24.9674 12.7087 21.4863 12.7087C19.419 12.7087 18.1375 13.6472 17.4701 14.4963V12.9504Z" fill="currentColor"></path>
</svg>