<svg width="33" height="32" viewBox="0 0 33 32" fill="none" xmlns="http://www.w3.org/2000/svg">
<path d="M21.1749 17.0485L21.6837 13.8155H18.5006V11.7184C18.5006 10.8338 18.9445 9.97087 20.3701 9.97087H21.8182V7.21845C21.8182 7.21845 20.5046 7 19.2493 7C16.6267 7 14.9141 8.54877 14.9141 11.3515V13.8155H12V17.0485H14.9141V24.8646C15.4991 24.9541 16.0976 25 16.7074 25C17.3171 25 17.9156 24.9541 18.5006 24.8646V17.0485H21.1749Z" fill="currentColor"></path>
<svg width="33" height="32" viewBox="0 0 33 32" fill="none" xmlns="http://www.w3.org/2000/svg">
<path d="M21.1749 17.0485L21.6837 13.8155H18.5006V11.7184C18.5006 10.8338 18.9445 9.97087 20.3701 9.97087H21.8182V7.21845C21.8182 7.21845 20.5046 7 19.2493 7C16.6267 7 14.9141 8.54877 14.9141 11.3515V13.8155H12V17.0485H14.9141V24.8646C15.4991 24.9541 16.0976 25 16.7074 25C17.3171 25 17.9156 24.9541 18.5006 24.8646V17.0485H21.1749Z" fill="currentColor"></path>
</svg></svg>