<svg width="33" height="32" viewBox="0 0 33 32" fill="none" xmlns="http://www.w3.org/2000/svg">
<path d="M23.7734 10.5C23.7734 11.3284 23.1019 12 22.2734 12C21.445 12 20.7734 11.3284 20.7734 10.5C20.7734 9.67157 21.445 9 22.2734 9C23.1019 9 23.7734 9.67157 23.7734 10.5Z" fill="currentColor"></path>
<path fill-rule="evenodd" clip-rule="evenodd" d="M16.7734 21C19.5349 21 21.7734 18.7614 21.7734 16C21.7734 13.2386 19.5349 11 16.7734 11C14.012 11 11.7734 13.2386 11.7734 16C11.7734 18.7614 14.012 21 16.7734 21ZM16.7734 19C18.4303 19 19.7734 17.6569 19.7734 16C19.7734 14.3431 18.4303 13 16.7734 13C15.1166 13 13.7734 14.3431 13.7734 16C13.7734 17.6569 15.1166 19 16.7734 19Z" fill="currentColor"></path>
<path fill-rule="evenodd" clip-rule="evenodd" d="M6.77344 15.6C6.77344 12.2397 6.77344 10.5595 7.4274 9.27606C8.00264 8.14708 8.92052 7.2292 10.0495 6.65396C11.333 6 13.0131 6 16.3734 6H17.1734C20.5338 6 22.2139 6 23.4974 6.65396C24.6264 7.2292 25.5442 8.14708 26.1195 9.27606C26.7734 10.5595 26.7734 12.2397 26.7734 15.6V16.4C26.7734 19.7603 26.7734 21.4405 26.1195 22.7239C25.5442 23.8529 24.6264 24.7708 23.4974 25.346C22.2139 26 20.5338 26 17.1734 26H16.3734C13.0131 26 11.333 26 10.0495 25.346C8.92052 24.7708 8.00264 23.8529 7.4274 22.7239C6.77344 21.4405 6.77344 19.7603 6.77344 16.4V15.6ZM16.3734 8H17.1734C18.8866 8 20.0512 8.00156 20.9514 8.0751C21.8282 8.14674 22.2766 8.27659 22.5894 8.43597C23.342 8.81947 23.954 9.43139 24.3375 10.184C24.4968 10.4968 24.6267 10.9452 24.6983 11.8221C24.7719 12.7223 24.7734 13.8868 24.7734 15.6V16.4C24.7734 18.1132 24.7719 19.2777 24.6983 20.1779C24.6267 21.0548 24.4968 21.5032 24.3375 21.816C23.954 22.5686 23.342 23.1805 22.5894 23.564C22.2766 23.7234 21.8282 23.8533 20.9514 23.9249C20.0512 23.9984 18.8866 24 17.1734 24H16.3734C14.6603 24 13.4957 23.9984 12.5955 23.9249C11.7187 23.8533 11.2703 23.7234 10.9575 23.564C10.2048 23.1805 9.5929 22.5686 9.20941 21.816C9.05003 21.5032 8.92018 21.0548 8.84854 20.1779C8.77499 19.2777 8.77344 18.1132 8.77344 16.4V15.6C8.77344 13.8868 8.77499 12.7223 8.84854 11.8221C8.92018 10.9452 9.05003 10.4968 9.20941 10.184C9.5929 9.43139 10.2048 8.81947 10.9575 8.43597C11.2703 8.27659 11.7187 8.14674 12.5955 8.0751C13.4957 8.00156 14.6603 8 16.3734 8Z" fill="currentColor"></path>
</svg>