<svg xmlns="http://www.w3.org/2000/svg" width="122" height="24" viewBox="0 0 122 24"><path style="fill:none" d="M0 0h122v24H0z"></path><path d="M8.767 10.63a8.767 8.767 0 1 0 8.767 8.77 8.767 8.767 0 0 0-8.767-8.77m0 15.2A6.429 6.429 0 1 1 15.2 19.4a6.429 6.429 0 0 1-6.429 6.429" transform="translate(0 -4.785)" style="fill:#fff"></path><path d="M53.96 8.665a8.767 8.767 0 1 0 0 11.893v2.529h2.34V0h-2.34zm-6.429 12.376a6.429 6.429 0 1 1 6.429-6.429 6.429 6.429 0 0 1-6.429 6.429" transform="translate(-17.45)" style="fill:#fff"></path><path d="M87.428 10.63a8.767 8.767 0 1 0 8.033 12.27h-2.648a6.423 6.423 0 0 1-11.7-2.338h15a8.712 8.712 0 0 0-8.681-9.936m-6.318 7.6a6.424 6.424 0 0 1 12.635 0z" transform="translate(-35.411 -4.785)" style="fill:#fff"></path><path d="M203.912 19.4a8.773 8.773 0 1 0-.734 3.507h-2.648a6.423 6.423 0 0 1-11.7-2.338h15a8.8 8.8 0 0 0 .086-1.169m-15.085-1.169a6.424 6.424 0 0 1 12.635 0z" transform="translate(-83.901 -4.785)" style="fill:#fff"></path><path d="M160.7 17.82c-3.587-.529-4.861-.977-4.861-2.435 0-1.5 1.907-2.638 4.437-2.638 2.412 0 4.126 1.029 4.631 2.763h2.577c-.492-3.062-3.164-4.88-7.208-4.88-4.78 0-6.958 2.517-6.958 4.855 0 3.058 2.551 4 6.957 4.591 4.392.552 5.224 1.446 5.224 2.9 0 1.509-1.672 3.038-4.866 3.038-2.733 0-4.852-1.29-5.352-3.231h-2.564c.6 3.327 3.6 5.38 7.917 5.38 4.354 0 7.279-2.151 7.279-5.353 0-3.648-2.989-4.37-7.212-4.991" transform="translate(-68.748 -4.785)" style="fill:#fff"></path><path d="M126.759 10.631h-2.426a5.327 5.327 0 0 0-4 2.331v-2.04h-2.338v16.931h2.338v-10.81a4.093 4.093 0 0 1 4.091-4.081h2.338a4.093 4.093 0 0 1 4.091 4.087v10.8h2.338v-10.8a6.422 6.422 0 0 0-6.429-6.418" transform="translate(-53.116 -4.786)" style="fill:#fff"></path></svg>